<?xml version="1.0" encoding="UTF-8"?>
<svg id="Capa_2" data-name="Capa 2" xmlns="http://www.w3.org/2000/svg" viewBox="0 0 367.82 367.82">
  <defs>
    <style>
      .cls-1 {
        fill: #00ce9d;
      }

      .cls-1, .cls-2, .cls-3 {
        stroke-width: 0px;
      }

      .cls-2 {
        fill: #fff;
      }

      .cls-3 {
        fill: #240f51;
      }
    </style>
  </defs>
  <g id="Capa_1-2" data-name="Capa 1">
    <g>
      <rect class="cls-3" width="367.82" height="367.82" rx="21.03" ry="21.03"/>
      <g>
        <path class="cls-2" d="M202.77,309.92l-54.06-74.42v74.42h-54.38V74.58h54.38v130.08l53.75-72.19h67.1l-73.78,89.05,74.42,88.41h-67.42Z"/>
        <path class="cls-1" d="M217.99,108.3c-6.04-5.61-9.06-12.56-9.06-20.83s3.02-15.53,9.06-21.15c6.04-5.62,13.83-8.43,23.38-8.43s17.01,2.81,23.06,8.43c6.04,5.62,9.06,12.67,9.06,21.15s-3.02,15.22-9.06,20.83c-6.04,5.62-13.73,8.43-23.06,8.43s-17.33-2.81-23.38-8.43Z"/>
      </g>
    </g>
  </g>
</svg>