<?xml version="1.0" encoding="UTF-8"?> <svg xmlns="http://www.w3.org/2000/svg" id="Capa_2" data-name="Capa 2" viewBox="0 0 471.61 100"><defs><style> .cls-1 { fill: #00ce9d; } .cls-1, .cls-2, .cls-3 { stroke-width: 0px; } .cls-2 { fill: #fff; } .cls-3 { fill: #240f51; } </style></defs><g id="Capa_1-2" data-name="Capa 1"><g><g><path class="cls-3" d="M145.9,84.28l-14.7-20.23v20.23h-14.79V20.3h14.79v35.36l14.61-19.63h18.24l-20.06,24.21,20.23,24.04h-18.33Z"></path><path class="cls-3" d="M215.07,63.7h-33.46c.23,3,1.2,5.29,2.9,6.87,1.7,1.59,3.79,2.38,6.27,2.38,3.69,0,6.25-1.56,7.7-4.67h15.74c-.81,3.17-2.26,6.02-4.37,8.56-2.1,2.54-4.74,4.53-7.91,5.97-3.17,1.44-6.72,2.16-10.63,2.16-4.73,0-8.94-1.01-12.62-3.03-3.69-2.02-6.57-4.9-8.65-8.65-2.08-3.75-3.11-8.13-3.11-13.14s1.02-9.4,3.07-13.14c2.05-3.75,4.91-6.63,8.6-8.65,3.69-2.02,7.92-3.03,12.71-3.03s8.82.98,12.45,2.94c3.63,1.96,6.47,4.76,8.52,8.39,2.05,3.63,3.07,7.87,3.07,12.71,0,1.38-.09,2.83-.26,4.32ZM200.2,55.49c0-2.54-.86-4.55-2.59-6.05-1.73-1.5-3.89-2.25-6.48-2.25s-4.57.72-6.27,2.16c-1.7,1.44-2.75,3.49-3.16,6.14h18.5Z"></path><path class="cls-3" d="M237.9,20.3v63.98h-14.79V20.3h14.79Z"></path><path class="cls-1" d="M249.7,28.73c-1.64-1.53-2.46-3.42-2.46-5.66s.82-4.22,2.46-5.75c1.64-1.53,3.76-2.29,6.36-2.29s4.63.76,6.27,2.29c1.64,1.53,2.46,3.45,2.46,5.75s-.82,4.14-2.46,5.66c-1.64,1.53-3.73,2.29-6.27,2.29s-4.71-.76-6.36-2.29Z"></path><rect class="cls-3" x="248.62" y="36.04" width="14.79" height="48.25"></rect><path class="cls-3" d="M350,40.96c3.54,3.63,5.32,8.68,5.32,15.13v28.19h-14.7v-26.2c0-3.11-.82-5.52-2.46-7.22-1.64-1.7-3.91-2.55-6.79-2.55s-5.14.85-6.79,2.55c-1.64,1.7-2.46,4.11-2.46,7.22v26.2h-14.7v-26.2c0-3.11-.82-5.52-2.46-7.22-1.64-1.7-3.91-2.55-6.79-2.55s-5.14.85-6.79,2.55c-1.64,1.7-2.46,4.11-2.46,7.22v26.2h-14.79v-48.25h14.79v6.05c1.5-2.02,3.46-3.62,5.88-4.8,2.42-1.18,5.16-1.77,8.21-1.77,3.63,0,6.87.78,9.73,2.33,2.85,1.56,5.09,3.78,6.7,6.66,1.67-2.65,3.95-4.81,6.83-6.48,2.88-1.67,6.02-2.51,9.42-2.51,5.99,0,10.77,1.82,14.31,5.45Z"></path><path class="cls-3" d="M386.44,37.42c2.59-1.38,5.56-2.08,8.91-2.08,3.98,0,7.58,1.01,10.81,3.03,3.23,2.02,5.78,4.9,7.65,8.65,1.87,3.75,2.81,8.1,2.81,13.06s-.94,9.32-2.81,13.1c-1.87,3.78-4.42,6.69-7.65,8.73-3.23,2.05-6.83,3.07-10.81,3.07-3.4,0-6.37-.68-8.91-2.03-2.54-1.35-4.53-3.16-5.97-5.4v6.74h-14.79V20.3h14.79v22.57c1.38-2.25,3.37-4.06,5.97-5.45ZM398.5,51.38c-2.05-2.1-4.57-3.16-7.57-3.16s-5.43,1.07-7.48,3.2c-2.05,2.13-3.07,5.04-3.07,8.73s1.02,6.6,3.07,8.73c2.05,2.13,4.54,3.2,7.48,3.2s5.45-1.08,7.52-3.24,3.11-5.09,3.11-8.78-1.02-6.58-3.07-8.69Z"></path><path class="cls-3" d="M433.61,81.95c-3.78-2.02-6.74-4.9-8.91-8.65-2.16-3.75-3.24-8.13-3.24-13.14s1.09-9.32,3.29-13.1c2.19-3.77,5.19-6.67,8.99-8.69,3.8-2.02,8.07-3.03,12.8-3.03s8.99,1.01,12.8,3.03c3.8,2.02,6.8,4.92,8.99,8.69,2.19,3.78,3.29,8.14,3.29,13.1s-1.11,9.32-3.33,13.1c-2.22,3.78-5.25,6.67-9.08,8.69-3.83,2.02-8.11,3.03-12.84,3.03s-8.98-1.01-12.75-3.03ZM453.58,69.07c1.99-2.08,2.98-5.04,2.98-8.91s-.97-6.83-2.9-8.91c-1.93-2.08-4.31-3.11-7.13-3.11s-5.27,1.02-7.18,3.07c-1.9,2.05-2.85,5.03-2.85,8.95s.94,6.83,2.81,8.91c1.87,2.08,4.22,3.11,7.05,3.11s5.23-1.04,7.22-3.11Z"></path></g><g><rect class="cls-3" y="0" width="100" height="100" rx="21.03" ry="21.03"></rect><g><path class="cls-2" d="M55.13,84.26l-14.7-20.23v20.23h-14.79V20.28h14.79v35.36l14.61-19.63h18.24l-20.06,24.21,20.23,24.04h-18.33Z"></path><path class="cls-1" d="M59.27,29.44c-1.64-1.53-2.46-3.42-2.46-5.66s.82-4.22,2.46-5.75c1.64-1.53,3.76-2.29,6.36-2.29s4.63.76,6.27,2.29c1.64,1.53,2.46,3.45,2.46,5.75s-.82,4.14-2.46,5.66c-1.64,1.53-3.73,2.29-6.27,2.29s-4.71-.76-6.36-2.29Z"></path></g></g></g></g></svg> 